<svg style="position:absolute"><defs><svg data-name="Layer 1" viewBox="0 0 122.56 122.88" id="moon" xmlns="http://www.w3.org/2000/svg"><path d="M121.85 87.3A64.31 64.31 0 1 1 36.88.4c2.94-1.37 5.92.91 4.47 4.47a56.29 56.29 0 0 0 75.75 77.4l.49-.27a3.41 3.41 0 0 1 4.61 4.61l-.35.69ZM92.46 74.67H92a16.11 16.11 0 0 0-15.8-15.74v-.52a15.08 15.08 0 0 0 11-4.72 15.19 15.19 0 0 0 4.72-11h.51a15.12 15.12 0 0 0 4.72 11 15.12 15.12 0 0 0 11 4.72v.51a16.13 16.13 0 0 0-15.69 15.75Zm10.09-46.59h-.27a7.94 7.94 0 0 0-2.49-5.81A7.94 7.94 0 0 0 94 19.78v-.27A7.94 7.94 0 0 0 99.79 17a8 8 0 0 0 2.49-5.8h.27A8 8 0 0 0 105 17a8 8 0 0 0 5.81 2.49v.27a8 8 0 0 0-5.81 2.51 7.94 7.94 0 0 0-2.49 5.81Zm-41.5 8h-.41a12.06 12.06 0 0 0-3.78-8.82A12.06 12.06 0 0 0 48 23.5v-.41a12.07 12.07 0 0 0 8.82-3.78 12.09 12.09 0 0 0 3.78-8.82h.41a12.08 12.08 0 0 0 3.77 8.82 12.09 12.09 0 0 0 8.83 3.78v.41a12.09 12.09 0 0 0-8.83 3.78 12.08 12.08 0 0 0-3.77 8.82Z" style="fill-rule:evenodd"/></svg><svg style="position:absolute" viewBox="0 0 0 0" id="sprite"><defs><svg data-name="Layer 1" viewBox="0 0 122.56 122.88" id="bmoon" xmlns="http://www.w3.org/2000/svg"><path d="M121.85 87.3A64.31 64.31 0 1 1 36.88.4c2.94-1.37 5.92.91 4.47 4.47a56.29 56.29 0 0 0 75.75 77.4l.49-.27a3.41 3.41 0 0 1 4.61 4.61l-.35.69ZM92.46 74.67H92a16.11 16.11 0 0 0-15.8-15.74v-.52a15.08 15.08 0 0 0 11-4.72 15.19 15.19 0 0 0 4.72-11h.51a15.12 15.12 0 0 0 4.72 11 15.12 15.12 0 0 0 11 4.72v.51a16.13 16.13 0 0 0-15.69 15.75Zm10.09-46.59h-.27a7.94 7.94 0 0 0-2.49-5.81A7.94 7.94 0 0 0 94 19.78v-.27A7.94 7.94 0 0 0 99.79 17a8 8 0 0 0 2.49-5.8h.27A8 8 0 0 0 105 17a8 8 0 0 0 5.81 2.49v.27a8 8 0 0 0-5.81 2.51 7.94 7.94 0 0 0-2.49 5.81Zm-41.5 8h-.41a12.06 12.06 0 0 0-3.78-8.82A12.06 12.06 0 0 0 48 23.5v-.41a12.07 12.07 0 0 0 8.82-3.78 12.09 12.09 0 0 0 3.78-8.82h.41a12.08 12.08 0 0 0 3.77 8.82 12.09 12.09 0 0 0 8.83 3.78v.41a12.09 12.09 0 0 0-8.83 3.78 12.08 12.08 0 0 0-3.77 8.82Z" style="fill-rule:evenodd"/></svg><svg style="position:absolute" viewBox="0 0 0 0" id="bsprite"><defs><svg data-name="Layer 1" viewBox="0 0 122.56 122.88" id="bbmoon" xmlns="http://www.w3.org/2000/svg"><path d="M121.85 87.3A64.31 64.31 0 1 1 36.88.4c2.94-1.37 5.92.91 4.47 4.47a56.29 56.29 0 0 0 75.75 77.4l.49-.27a3.41 3.41 0 0 1 4.61 4.61l-.35.69ZM92.46 74.67H92a16.11 16.11 0 0 0-15.8-15.74v-.52a15.08 15.08 0 0 0 11-4.72 15.19 15.19 0 0 0 4.72-11h.51a15.12 15.12 0 0 0 4.72 11 15.12 15.12 0 0 0 11 4.72v.51a16.13 16.13 0 0 0-15.69 15.75Zm10.09-46.59h-.27a7.94 7.94 0 0 0-2.49-5.81A7.94 7.94 0 0 0 94 19.78v-.27A7.94 7.94 0 0 0 99.79 17a8 8 0 0 0 2.49-5.8h.27A8 8 0 0 0 105 17a8 8 0 0 0 5.81 2.49v.27a8 8 0 0 0-5.81 2.51 7.94 7.94 0 0 0-2.49 5.81Zm-41.5 8h-.41a12.06 12.06 0 0 0-3.78-8.82A12.06 12.06 0 0 0 48 23.5v-.41a12.07 12.07 0 0 0 8.82-3.78 12.09 12.09 0 0 0 3.78-8.82h.41a12.08 12.08 0 0 0 3.77 8.82 12.09 12.09 0 0 0 8.83 3.78v.41a12.09 12.09 0 0 0-8.83 3.78 12.08 12.08 0 0 0-3.77 8.82Z" style="fill-rule:evenodd"/></svg><svg viewBox="0 0 24 24" id="bbsun" xmlns="http://www.w3.org/2000/svg"><path d="M12 0c-.6 0-1 .4-1 1v1c0 .6.4 1 1 1s1-.4 1-1V1c0-.6-.4-1-1-1zM4.2 3.2c-.25 0-.5.1-.7.3-.4.4-.4 1 0 1.4l.7.7c.4.4 1 .4 1.4 0 .4-.4.4-1 0-1.4l-.7-.7a.99.99 0 0 0-.7-.3zm15.6 0a.99.99 0 0 0-.7.3l-.7.7c-.4.4-.4 1 0 1.4.4.4 1 .4 1.4 0l.7-.7c.4-.4.4-1 0-1.4-.2-.2-.45-.3-.7-.3zM12 5a7 7 0 0 0-7 7 7 7 0 0 0 7 7 7 7 0 0 0 7-7 7 7 0 0 0-7-7zM1 11c-.6 0-1 .4-1 1s.4 1 1 1h1c.6 0 1-.4 1-1s-.4-1-1-1H1zm21 0c-.6 0-1 .4-1 1s.4 1 1 1h1c.6 0 1-.4 1-1s-.4-1-1-1h-1zM4.9 18.1a.99.99 0 0 0-.7.3l-.7.7c-.4.4-.4 1 0 1.4.4.4 1 .4 1.4 0l.7-.7c.4-.4.4-1 0-1.4-.2-.2-.45-.3-.7-.3zm14.2 0c-.25 0-.5.1-.7.3-.4.4-.4 1 0 1.4l.7.7c.4.4 1 .4 1.4 0 .4-.4.4-1 0-1.4l-.7-.7a.99.99 0 0 0-.7-.3zM12 21c-.6 0-1 .4-1 1v1c0 .6.4 1 1 1s1-.4 1-1v-1c0-.6-.4-1-1-1z"/></svg></defs></svg><svg viewBox="0 0 24 24" id="bsun" xmlns="http://www.w3.org/2000/svg"><path d="M12 0c-.6 0-1 .4-1 1v1c0 .6.4 1 1 1s1-.4 1-1V1c0-.6-.4-1-1-1zM4.2 3.2c-.25 0-.5.1-.7.3-.4.4-.4 1 0 1.4l.7.7c.4.4 1 .4 1.4 0 .4-.4.4-1 0-1.4l-.7-.7a.99.99 0 0 0-.7-.3zm15.6 0a.99.99 0 0 0-.7.3l-.7.7c-.4.4-.4 1 0 1.4.4.4 1 .4 1.4 0l.7-.7c.4-.4.4-1 0-1.4-.2-.2-.45-.3-.7-.3zM12 5a7 7 0 0 0-7 7 7 7 0 0 0 7 7 7 7 0 0 0 7-7 7 7 0 0 0-7-7zM1 11c-.6 0-1 .4-1 1s.4 1 1 1h1c.6 0 1-.4 1-1s-.4-1-1-1H1zm21 0c-.6 0-1 .4-1 1s.4 1 1 1h1c.6 0 1-.4 1-1s-.4-1-1-1h-1zM4.9 18.1a.99.99 0 0 0-.7.3l-.7.7c-.4.4-.4 1 0 1.4.4.4 1 .4 1.4 0l.7-.7c.4-.4.4-1 0-1.4-.2-.2-.45-.3-.7-.3zm14.2 0c-.25 0-.5.1-.7.3-.4.4-.4 1 0 1.4l.7.7c.4.4 1 .4 1.4 0 .4-.4.4-1 0-1.4l-.7-.7a.99.99 0 0 0-.7-.3zM12 21c-.6 0-1 .4-1 1v1c0 .6.4 1 1 1s1-.4 1-1v-1c0-.6-.4-1-1-1z"/></svg></defs></svg><svg viewBox="0 0 24 24" id="sun" xmlns="http://www.w3.org/2000/svg"><path d="M12 0c-.6 0-1 .4-1 1v1c0 .6.4 1 1 1s1-.4 1-1V1c0-.6-.4-1-1-1zM4.2 3.2c-.25 0-.5.1-.7.3-.4.4-.4 1 0 1.4l.7.7c.4.4 1 .4 1.4 0 .4-.4.4-1 0-1.4l-.7-.7a.99.99 0 0 0-.7-.3zm15.6 0a.99.99 0 0 0-.7.3l-.7.7c-.4.4-.4 1 0 1.4.4.4 1 .4 1.4 0l.7-.7c.4-.4.4-1 0-1.4-.2-.2-.45-.3-.7-.3zM12 5a7 7 0 0 0-7 7 7 7 0 0 0 7 7 7 7 0 0 0 7-7 7 7 0 0 0-7-7zM1 11c-.6 0-1 .4-1 1s.4 1 1 1h1c.6 0 1-.4 1-1s-.4-1-1-1H1zm21 0c-.6 0-1 .4-1 1s.4 1 1 1h1c.6 0 1-.4 1-1s-.4-1-1-1h-1zM4.9 18.1a.99.99 0 0 0-.7.3l-.7.7c-.4.4-.4 1 0 1.4.4.4 1 .4 1.4 0l.7-.7c.4-.4.4-1 0-1.4-.2-.2-.45-.3-.7-.3zm14.2 0c-.25 0-.5.1-.7.3-.4.4-.4 1 0 1.4l.7.7c.4.4 1 .4 1.4 0 .4-.4.4-1 0-1.4l-.7-.7a.99.99 0 0 0-.7-.3zM12 21c-.6 0-1 .4-1 1v1c0 .6.4 1 1 1s1-.4 1-1v-1c0-.6-.4-1-1-1z"/></svg></defs></svg>