<svg style="position:absolute"><defs><svg viewBox="0 0 24 24" fill="none" id="download" xmlns="http://www.w3.org/2000/svg"><path d="M13 4H8.8c-1.68 0-2.52 0-3.162.327a3 3 0 00-1.311 1.311C4 6.28 4 7.12 4 8.8v6.4c0 1.68 0 2.52.327 3.162a3 3 0 001.311 1.311C6.28 20 7.12 20 8.8 20h6.4c1.68 0 2.52 0 3.162-.327a3 3 0 001.311-1.311C20 17.72 20 16.88 20 15.2V11" stroke-width="2" stroke-linecap="round" stroke-linejoin="round" stroke="currentColor"/><path d="M4 16l4.293-4.293a1 1 0 011.414 0L13 15m0 0l2.793-2.793a1 1 0 011.414 0L20 15m-7 0l2.25 2.25M18 3v5m0 0l-2-2m2 2l2-2" stroke-width="2" stroke-linecap="round" stroke-linejoin="round" stroke="currentColor"/></svg><svg id="moon" data-name="Layer 1" viewBox="0 0 122.56 122.88" xmlns="http://www.w3.org/2000/svg"><defs><style>.bcls-1{fill-rule:evenodd}</style></defs><path class="bcls-1" d="M121.85 87.3A64.31 64.31 0 1136.88.4c2.94-1.37 5.92.91 4.47 4.47a56.29 56.29 0 0075.75 77.4l.49-.27a3.41 3.41 0 014.61 4.61l-.35.69zM92.46 74.67H92a16.11 16.11 0 00-15.8-15.74v-.52a15.08 15.08 0 0011-4.72 15.19 15.19 0 004.72-11h.51a15.12 15.12 0 004.72 11 15.12 15.12 0 0011 4.72v.51a16.13 16.13 0 00-15.69 15.75zm10.09-46.59h-.27a7.94 7.94 0 00-2.49-5.81A7.94 7.94 0 0094 19.78v-.27A7.94 7.94 0 0099.79 17a8 8 0 002.49-5.8h.27A8 8 0 00105 17a8 8 0 005.81 2.49v.27a8 8 0 00-5.81 2.51 7.94 7.94 0 00-2.49 5.81zm-41.5 8h-.41a12.06 12.06 0 00-3.78-8.82A12.06 12.06 0 0048 23.5v-.41a12.07 12.07 0 008.82-3.78 12.09 12.09 0 003.78-8.82h.41a12.08 12.08 0 003.77 8.82 12.09 12.09 0 008.83 3.78v.41a12.09 12.09 0 00-8.83 3.78 12.08 12.08 0 00-3.77 8.82z"/></svg><svg version="1.1" id="pen" x="0" y="0" viewBox="0 0 117.74 122.88" xml:space="preserve" xmlns="http://www.w3.org/2000/svg"><style>.cst0{fill-rule:evenodd;clip-rule:evenodd}</style><path class="cst0" d="M94.62 2C93.16.64 91.48-.09 89.6.01c-1.88 0-3.56.73-4.92 2.2L73.59 13.72l31.07 30.03 11.19-11.72c1.36-1.36 1.88-3.14 1.88-5.02s-.73-3.66-2.09-4.92L94.62 2zM41.44 109.58c-4.08 1.36-8.26 2.62-12.35 3.98-4.08 1.36-8.16 2.72-12.35 4.08-9.73 3.14-15.07 4.92-16.22 5.23-1.15.31-.42-4.18 1.99-13.6l7.74-29.61.64-.66 30.56 30.56-.01.02zM22.2 67.25l42.99-44.82 31.07 29.92L52.75 97.8 22.2 67.25z"/></svg><svg viewBox="0 0 24 24" id="sun" xmlns="http://www.w3.org/2000/svg"><path d="M12 0c-.6 0-1 .4-1 1v1c0 .6.4 1 1 1s1-.4 1-1V1c0-.6-.4-1-1-1zM4.2 3.2c-.25 0-.5.1-.7.3-.4.4-.4 1 0 1.4l.7.7c.4.4 1 .4 1.4 0 .4-.4.4-1 0-1.4l-.7-.7a.99.99 0 00-.7-.3zm15.6 0a.99.99 0 00-.7.3l-.7.7c-.4.4-.4 1 0 1.4.4.4 1 .4 1.4 0l.7-.7c.4-.4.4-1 0-1.4-.2-.2-.45-.3-.7-.3zM12 5a7 7 0 00-7 7 7 7 0 007 7 7 7 0 007-7 7 7 0 00-7-7zM1 11c-.6 0-1 .4-1 1s.4 1 1 1h1c.6 0 1-.4 1-1s-.4-1-1-1H1zm21 0c-.6 0-1 .4-1 1s.4 1 1 1h1c.6 0 1-.4 1-1s-.4-1-1-1h-1zM4.9 18.1a.99.99 0 00-.7.3l-.7.7c-.4.4-.4 1 0 1.4.4.4 1 .4 1.4 0l.7-.7c.4-.4.4-1 0-1.4-.2-.2-.45-.3-.7-.3zm14.2 0c-.25 0-.5.1-.7.3-.4.4-.4 1 0 1.4l.7.7c.4.4 1 .4 1.4 0 .4-.4.4-1 0-1.4l-.7-.7a.99.99 0 00-.7-.3zM12 21c-.6 0-1 .4-1 1v1c0 .6.4 1 1 1s1-.4 1-1v-1c0-.6-.4-1-1-1z"/></svg><svg viewBox="0 0 24 24" id="trash" xmlns="http://www.w3.org/2000/svg"><path d="M2.75 6.167c0-.46.345-.834.771-.834h2.665c.529-.015.996-.378 1.176-.916l.03-.095.115-.372c.07-.228.131-.427.217-.605.338-.702.964-1.189 1.687-1.314.184-.031.377-.031.6-.031h3.478c.223 0 .417 0 .6.031.723.125 1.35.612 1.687 1.314.086.178.147.377.217.605l.115.372.03.095c.18.538.74.902 1.27.916h2.57c.427 0 .772.373.772.834 0 .46-.345.833-.771.833H3.52c-.426 0-.771-.373-.771-.833zM11.607 22h.787c2.707 0 4.06 0 4.941-.863.88-.864.97-2.28 1.15-5.111l.26-4.081c.098-1.537.147-2.305-.295-2.792-.442-.487-1.187-.487-2.679-.487H8.23c-1.491 0-2.237 0-2.679.487-.441.487-.392 1.255-.295 2.792l.26 4.08c.18 2.833.27 4.248 1.15 5.112C7.545 22 8.9 22 11.607 22z"/></svg></defs></svg>