<svg style="position:absolute"><defs><svg viewBox="0 0 24 24" fill="none" id="download" xmlns="http://www.w3.org/2000/svg"><path d="M12 2a1 1 0 011 1v10.586l3.293-3.293a1 1 0 111.414 1.414l-4.998 4.998-.015.015a.997.997 0 01-.691.28h-.006a.996.996 0 01-.704-.293l-5-5a1 1 0 111.414-1.414L11 13.586V3a1 1 0 011-1z" fill="#000"/><path d="M4 17a1 1 0 10-2 0v3a2 2 0 002 2h16a2 2 0 002-2v-3a1 1 0 10-2 0v3H4v-3z" fill="#000"/></svg><svg viewBox="0 0 48 48" id="google" xmlns="http://www.w3.org/2000/svg"><path fill="#EA4335" d="M24 9.5c3.54 0 6.71 1.22 9.21 3.6l6.85-6.85C35.9 2.38 30.47 0 24 0 14.62 0 6.51 5.38 2.56 13.22l7.98 6.19C12.43 13.72 17.74 9.5 24 9.5z"/><path fill="#4285F4" d="M46.98 24.55c0-1.57-.15-3.09-.38-4.55H24v9.02h12.94c-.58 2.96-2.26 5.48-4.78 7.18l7.73 6c4.51-4.18 7.09-10.36 7.09-17.65z"/><path fill="#FBBC05" d="M10.53 28.59c-.48-1.45-.76-2.99-.76-4.59s.27-3.14.76-4.59l-7.98-6.19C.92 16.46 0 20.12 0 24c0 3.88.92 7.54 2.56 10.78l7.97-6.19z"/><path fill="#34A853" d="M24 48c6.48 0 11.93-2.13 15.89-5.81l-7.73-6c-2.15 1.45-4.92 2.3-8.16 2.3-6.26 0-11.57-4.22-13.47-9.91l-7.98 6.19C6.51 42.62 14.62 48 24 48z"/><path fill="none" d="M0 0h48v48H0z"/></svg><svg viewBox="0 0 24 24" fill="none" id="moon" xmlns="http://www.w3.org/2000/svg"><path fill-rule="evenodd" clip-rule="evenodd" d="M12.097 2.53a1 1 0 01-.041 1.07 6 6 0 008.345 8.345 1 1 0 011.563.907C21.531 17.977 17.236 22 12 22 6.477 22 2 17.523 2 12c0-5.236 4.024-9.531 9.148-9.964a1 1 0 01.95.494zM9.424 4.424a8 8 0 1010.152 10.152A8 8 0 019.425 4.424z" fill="#000"/></svg><svg viewBox="0 0 24 24" fill="none" id="pen" xmlns="http://www.w3.org/2000/svg"><path fill-rule="evenodd" clip-rule="evenodd" d="M18.432 4a1.568 1.568 0 00-1.108.46L5.257 16.525l-.832 3.049 3.049-.832L19.54 6.676A1.569 1.569 0 0018.432 4zm-1.365-1.728a3.568 3.568 0 013.888 5.818L8.7 20.345a1 1 0 01-.444.258l-4.993 1.362a1 1 0 01-1.228-1.228l1.362-4.993a1 1 0 01.258-.444L15.91 3.045a3.568 3.568 0 011.157-.773z" fill="#000"/></svg><svg viewBox="0 0 24 24" fill="none" id="sun" xmlns="http://www.w3.org/2000/svg"><g clip-path="url(#eclip0_1300_106215)" fill="#000"><path d="M12 0a1 1 0 011 1v3a1 1 0 11-2 0V1a1 1 0 011-1z"/><path fill-rule="evenodd" clip-rule="evenodd" d="M7 12a5 5 0 1110 0 5 5 0 01-10 0zm5-3a3 3 0 100 6 3 3 0 000-6z"/><path d="M20.485 4.929a1 1 0 00-1.414-1.414L16.95 5.636a1 1 0 001.414 1.414l2.121-2.121zM24 12a1 1 0 01-1 1h-3a1 1 0 110-2h3a1 1 0 011 1zM19.071 20.485a1 1 0 001.414-1.414l-2.121-2.121a1 1 0 10-1.414 1.414l2.121 2.121zM12 24a1 1 0 01-1-1v-3a1 1 0 112 0v3a1 1 0 01-1 1zM3.515 19.071a1 1 0 101.414 1.414l2.121-2.121a1 1 0 00-1.414-1.414L3.515 19.07zM0 12a1 1 0 011-1h3a1 1 0 110 2H1a1 1 0 01-1-1zM4.929 3.515a1 1 0 10-1.414 1.414L5.636 7.05A1 1 0 007.05 5.636L4.93 3.515z"/></g><defs><clipPath id="eclip0_1300_106215"><path fill="#fff" d="M0 0h24v24H0z"/></clipPath></defs></svg><svg viewBox="0 0 24 24" fill="none" id="trash" xmlns="http://www.w3.org/2000/svg"><path fill-rule="evenodd" clip-rule="evenodd" d="M7 4a3 3 0 013-3h4a3 3 0 013 3v1h4a1 1 0 110 2h-1.06l-.825 13.187A3 3 0 0116.121 23H7.88a3 3 0 01-2.994-2.813L4.06 7H3a1 1 0 010-2h4V4zm2 1h6V4a1 1 0 00-1-1h-4a1 1 0 00-1 1v1zM6.064 7l.817 13.062a1 1 0 00.998.938h8.242a1 1 0 00.998-.938L17.936 7H6.064z" fill="#000"/></svg></defs></svg>